<mxfile host="app.diagrams.net" agent="Mozilla/5.0 (Windows NT 10.0; Win64; x64) AppleWebKit/537.36 (KHTML, like Gecko) Chrome/137.0.0.0 Safari/537.36" version="27.1.4">
  <diagram name="Página-1" id="jBGtr_R6ot5ZprSfoKn-">
    <mxGraphModel dx="2201" dy="1124" grid="1" gridSize="10" guides="1" tooltips="1" connect="1" arrows="1" fold="1" page="1" pageScale="1" pageWidth="827" pageHeight="1169" math="0" shadow="0">
      <root>
        <mxCell id="0" />
        <mxCell id="1" parent="0" />
        <mxCell id="piZ6OrKOnbqKaCqgqvd0-2" value="&lt;font style=&quot;font-size: 25px;&quot;&gt;Modelo Entidade Relacionamento Projeto Brinquedoteca&lt;/font&gt;" style="text;html=1;align=center;verticalAlign=middle;whiteSpace=wrap;rounded=0;" vertex="1" parent="1">
          <mxGeometry x="171" y="40" width="486" height="70" as="geometry" />
        </mxCell>
        <mxCell id="piZ6OrKOnbqKaCqgqvd0-29" style="edgeStyle=orthogonalEdgeStyle;rounded=0;orthogonalLoop=1;jettySize=auto;html=1;entryX=0;entryY=0.5;entryDx=0;entryDy=0;endArrow=none;startFill=0;" edge="1" parent="1" source="piZ6OrKOnbqKaCqgqvd0-3" target="piZ6OrKOnbqKaCqgqvd0-5">
          <mxGeometry relative="1" as="geometry" />
        </mxCell>
        <mxCell id="piZ6OrKOnbqKaCqgqvd0-56" style="edgeStyle=orthogonalEdgeStyle;rounded=0;orthogonalLoop=1;jettySize=auto;html=1;entryX=0;entryY=0;entryDx=0;entryDy=0;exitX=1;exitY=1;exitDx=0;exitDy=0;" edge="1" parent="1" source="piZ6OrKOnbqKaCqgqvd0-3" target="piZ6OrKOnbqKaCqgqvd0-18">
          <mxGeometry relative="1" as="geometry">
            <Array as="points">
              <mxPoint x="320" y="320" />
              <mxPoint x="510" y="320" />
            </Array>
          </mxGeometry>
        </mxCell>
        <mxCell id="piZ6OrKOnbqKaCqgqvd0-3" value="&lt;font style=&quot;font-size: 15px;&quot;&gt;Jogos&lt;/font&gt;" style="rounded=0;whiteSpace=wrap;html=1;" vertex="1" parent="1">
          <mxGeometry x="200" y="150" width="120" height="60" as="geometry" />
        </mxCell>
        <mxCell id="piZ6OrKOnbqKaCqgqvd0-30" style="edgeStyle=orthogonalEdgeStyle;rounded=0;orthogonalLoop=1;jettySize=auto;html=1;entryX=1;entryY=0.5;entryDx=0;entryDy=0;endArrow=none;startFill=0;" edge="1" parent="1" source="piZ6OrKOnbqKaCqgqvd0-4" target="piZ6OrKOnbqKaCqgqvd0-5">
          <mxGeometry relative="1" as="geometry" />
        </mxCell>
        <mxCell id="piZ6OrKOnbqKaCqgqvd0-55" style="edgeStyle=orthogonalEdgeStyle;rounded=0;orthogonalLoop=1;jettySize=auto;html=1;exitX=0.5;exitY=1;exitDx=0;exitDy=0;" edge="1" parent="1" source="piZ6OrKOnbqKaCqgqvd0-4">
          <mxGeometry relative="1" as="geometry">
            <mxPoint x="570" y="360" as="targetPoint" />
          </mxGeometry>
        </mxCell>
        <mxCell id="piZ6OrKOnbqKaCqgqvd0-4" value="&lt;font style=&quot;font-size: 15px;&quot;&gt;Brinquedos&lt;/font&gt;" style="rounded=0;whiteSpace=wrap;html=1;" vertex="1" parent="1">
          <mxGeometry x="510" y="150" width="120" height="60" as="geometry" />
        </mxCell>
        <mxCell id="piZ6OrKOnbqKaCqgqvd0-40" style="edgeStyle=orthogonalEdgeStyle;rounded=0;orthogonalLoop=1;jettySize=auto;html=1;exitX=0;exitY=1;exitDx=0;exitDy=0;endArrow=none;startFill=0;" edge="1" parent="1" source="piZ6OrKOnbqKaCqgqvd0-5" target="piZ6OrKOnbqKaCqgqvd0-16">
          <mxGeometry relative="1" as="geometry">
            <Array as="points">
              <mxPoint x="354" y="250" />
              <mxPoint x="110" y="250" />
            </Array>
          </mxGeometry>
        </mxCell>
        <mxCell id="piZ6OrKOnbqKaCqgqvd0-47" style="edgeStyle=orthogonalEdgeStyle;rounded=0;orthogonalLoop=1;jettySize=auto;html=1;entryX=0.5;entryY=0;entryDx=0;entryDy=0;exitX=1;exitY=1;exitDx=0;exitDy=0;endArrow=none;startFill=0;" edge="1" parent="1" source="piZ6OrKOnbqKaCqgqvd0-5" target="piZ6OrKOnbqKaCqgqvd0-17">
          <mxGeometry relative="1" as="geometry">
            <Array as="points">
              <mxPoint x="474" y="250" />
              <mxPoint x="730" y="250" />
            </Array>
          </mxGeometry>
        </mxCell>
        <mxCell id="piZ6OrKOnbqKaCqgqvd0-5" value="&lt;font style=&quot;font-size: 15px;&quot;&gt;Tipos&lt;/font&gt;" style="rounded=0;whiteSpace=wrap;html=1;" vertex="1" parent="1">
          <mxGeometry x="354" y="150" width="120" height="60" as="geometry" />
        </mxCell>
        <mxCell id="piZ6OrKOnbqKaCqgqvd0-31" style="edgeStyle=orthogonalEdgeStyle;rounded=0;orthogonalLoop=1;jettySize=auto;html=1;endArrow=none;startFill=0;" edge="1" parent="1" source="piZ6OrKOnbqKaCqgqvd0-8" target="piZ6OrKOnbqKaCqgqvd0-3">
          <mxGeometry relative="1" as="geometry" />
        </mxCell>
        <mxCell id="piZ6OrKOnbqKaCqgqvd0-8" value="&lt;font style=&quot;font-size: 15px;&quot;&gt;Estágio&lt;/font&gt;&lt;div&gt;&lt;font style=&quot;font-size: 15px;&quot;&gt;Desenvolvimento&lt;/font&gt;&lt;/div&gt;" style="rounded=0;whiteSpace=wrap;html=1;" vertex="1" parent="1">
          <mxGeometry x="50" y="150" width="120" height="60" as="geometry" />
        </mxCell>
        <mxCell id="piZ6OrKOnbqKaCqgqvd0-32" style="edgeStyle=orthogonalEdgeStyle;rounded=0;orthogonalLoop=1;jettySize=auto;html=1;entryX=1;entryY=0.5;entryDx=0;entryDy=0;endArrow=none;startFill=0;" edge="1" parent="1" source="piZ6OrKOnbqKaCqgqvd0-9" target="piZ6OrKOnbqKaCqgqvd0-4">
          <mxGeometry relative="1" as="geometry" />
        </mxCell>
        <mxCell id="piZ6OrKOnbqKaCqgqvd0-9" value="&lt;span style=&quot;font-size: 15px;&quot;&gt;Área de Desenvolvimento&lt;/span&gt;" style="rounded=0;whiteSpace=wrap;html=1;" vertex="1" parent="1">
          <mxGeometry x="670" y="150" width="120" height="60" as="geometry" />
        </mxCell>
        <mxCell id="piZ6OrKOnbqKaCqgqvd0-50" style="edgeStyle=orthogonalEdgeStyle;rounded=0;orthogonalLoop=1;jettySize=auto;html=1;exitX=0.5;exitY=0;exitDx=0;exitDy=0;entryX=0.5;entryY=1;entryDx=0;entryDy=0;entryPerimeter=0;endArrow=none;startFill=0;" edge="1" parent="1" source="piZ6OrKOnbqKaCqgqvd0-10" target="piZ6OrKOnbqKaCqgqvd0-18">
          <mxGeometry relative="1" as="geometry">
            <Array as="points">
              <mxPoint x="730" y="510" />
              <mxPoint x="570" y="510" />
            </Array>
          </mxGeometry>
        </mxCell>
        <mxCell id="piZ6OrKOnbqKaCqgqvd0-75" style="edgeStyle=orthogonalEdgeStyle;rounded=0;orthogonalLoop=1;jettySize=auto;html=1;exitX=0.75;exitY=0;exitDx=0;exitDy=0;entryX=0.75;entryY=1;entryDx=0;entryDy=0;" edge="1" parent="1" source="piZ6OrKOnbqKaCqgqvd0-10" target="piZ6OrKOnbqKaCqgqvd0-25">
          <mxGeometry relative="1" as="geometry">
            <Array as="points">
              <mxPoint x="760" y="510" />
              <mxPoint x="917" y="510" />
            </Array>
          </mxGeometry>
        </mxCell>
        <mxCell id="piZ6OrKOnbqKaCqgqvd0-10" value="&lt;font style=&quot;font-size: 15px;&quot;&gt;Crianças&lt;/font&gt;" style="rounded=0;whiteSpace=wrap;html=1;" vertex="1" parent="1">
          <mxGeometry x="670" y="560" width="120" height="60" as="geometry" />
        </mxCell>
        <mxCell id="piZ6OrKOnbqKaCqgqvd0-33" style="edgeStyle=orthogonalEdgeStyle;rounded=0;orthogonalLoop=1;jettySize=auto;html=1;entryX=0;entryY=0.5;entryDx=0;entryDy=0;" edge="1" parent="1" source="piZ6OrKOnbqKaCqgqvd0-11" target="piZ6OrKOnbqKaCqgqvd0-10">
          <mxGeometry relative="1" as="geometry" />
        </mxCell>
        <mxCell id="piZ6OrKOnbqKaCqgqvd0-11" value="&lt;font style=&quot;font-size: 15px;&quot;&gt;Responsáveis&lt;/font&gt;" style="rounded=0;whiteSpace=wrap;html=1;" vertex="1" parent="1">
          <mxGeometry x="510" y="560" width="120" height="60" as="geometry" />
        </mxCell>
        <mxCell id="piZ6OrKOnbqKaCqgqvd0-39" style="edgeStyle=orthogonalEdgeStyle;rounded=0;orthogonalLoop=1;jettySize=auto;html=1;entryX=0.5;entryY=1;entryDx=0;entryDy=0;exitX=0;exitY=0.5;exitDx=0;exitDy=0;endArrow=none;startFill=0;" edge="1" parent="1" source="piZ6OrKOnbqKaCqgqvd0-12" target="piZ6OrKOnbqKaCqgqvd0-16">
          <mxGeometry relative="1" as="geometry">
            <Array as="points">
              <mxPoint x="330" y="590" />
              <mxPoint x="330" y="510" />
              <mxPoint x="110" y="510" />
            </Array>
          </mxGeometry>
        </mxCell>
        <mxCell id="piZ6OrKOnbqKaCqgqvd0-44" style="edgeStyle=orthogonalEdgeStyle;rounded=0;orthogonalLoop=1;jettySize=auto;html=1;exitX=0.25;exitY=0;exitDx=0;exitDy=0;entryX=0.5;entryY=1;entryDx=0;entryDy=0;endArrow=none;startFill=0;" edge="1" parent="1" source="piZ6OrKOnbqKaCqgqvd0-12" target="piZ6OrKOnbqKaCqgqvd0-15">
          <mxGeometry relative="1" as="geometry">
            <Array as="points">
              <mxPoint x="384" y="490" />
              <mxPoint x="260" y="490" />
            </Array>
          </mxGeometry>
        </mxCell>
        <mxCell id="piZ6OrKOnbqKaCqgqvd0-46" style="edgeStyle=orthogonalEdgeStyle;rounded=0;orthogonalLoop=1;jettySize=auto;html=1;entryX=0.25;entryY=1;entryDx=0;entryDy=0;exitX=1;exitY=0;exitDx=0;exitDy=0;endArrow=none;startFill=0;" edge="1" parent="1" source="piZ6OrKOnbqKaCqgqvd0-12" target="piZ6OrKOnbqKaCqgqvd0-17">
          <mxGeometry relative="1" as="geometry">
            <Array as="points">
              <mxPoint x="474" y="510" />
              <mxPoint x="700" y="510" />
            </Array>
          </mxGeometry>
        </mxCell>
        <mxCell id="piZ6OrKOnbqKaCqgqvd0-60" style="edgeStyle=orthogonalEdgeStyle;rounded=0;orthogonalLoop=1;jettySize=auto;html=1;entryX=0.5;entryY=1;entryDx=0;entryDy=0;" edge="1" parent="1" source="piZ6OrKOnbqKaCqgqvd0-12" target="piZ6OrKOnbqKaCqgqvd0-23">
          <mxGeometry relative="1" as="geometry" />
        </mxCell>
        <mxCell id="piZ6OrKOnbqKaCqgqvd0-72" style="edgeStyle=orthogonalEdgeStyle;rounded=0;orthogonalLoop=1;jettySize=auto;html=1;exitX=0.25;exitY=0;exitDx=0;exitDy=0;entryX=0.5;entryY=1;entryDx=0;entryDy=0;" edge="1" parent="1" source="piZ6OrKOnbqKaCqgqvd0-12" target="piZ6OrKOnbqKaCqgqvd0-21">
          <mxGeometry relative="1" as="geometry">
            <Array as="points">
              <mxPoint x="384" y="510" />
              <mxPoint x="-190" y="510" />
            </Array>
          </mxGeometry>
        </mxCell>
        <mxCell id="piZ6OrKOnbqKaCqgqvd0-73" style="edgeStyle=orthogonalEdgeStyle;rounded=0;orthogonalLoop=1;jettySize=auto;html=1;exitX=0;exitY=0;exitDx=0;exitDy=0;entryX=0.5;entryY=1;entryDx=0;entryDy=0;" edge="1" parent="1" source="piZ6OrKOnbqKaCqgqvd0-12" target="piZ6OrKOnbqKaCqgqvd0-22">
          <mxGeometry relative="1" as="geometry" />
        </mxCell>
        <mxCell id="piZ6OrKOnbqKaCqgqvd0-74" style="edgeStyle=orthogonalEdgeStyle;rounded=0;orthogonalLoop=1;jettySize=auto;html=1;exitX=0.75;exitY=0;exitDx=0;exitDy=0;entryX=0.5;entryY=1;entryDx=0;entryDy=0;" edge="1" parent="1" source="piZ6OrKOnbqKaCqgqvd0-12" target="piZ6OrKOnbqKaCqgqvd0-25">
          <mxGeometry relative="1" as="geometry" />
        </mxCell>
        <mxCell id="piZ6OrKOnbqKaCqgqvd0-12" value="&lt;font style=&quot;font-size: 15px;&quot;&gt;Funcionários&lt;/font&gt;" style="rounded=0;whiteSpace=wrap;html=1;" vertex="1" parent="1">
          <mxGeometry x="354" y="560" width="120" height="60" as="geometry" />
        </mxCell>
        <mxCell id="piZ6OrKOnbqKaCqgqvd0-52" style="edgeStyle=orthogonalEdgeStyle;rounded=0;orthogonalLoop=1;jettySize=auto;html=1;entryX=0.25;entryY=1;entryDx=0;entryDy=0;endArrow=none;startFill=0;exitX=0.25;exitY=0;exitDx=0;exitDy=0;" edge="1" parent="1" source="piZ6OrKOnbqKaCqgqvd0-13" target="piZ6OrKOnbqKaCqgqvd0-15">
          <mxGeometry relative="1" as="geometry" />
        </mxCell>
        <mxCell id="piZ6OrKOnbqKaCqgqvd0-13" value="&lt;span style=&quot;font-size: 15px;&quot;&gt;Doador&lt;/span&gt;" style="rounded=0;whiteSpace=wrap;html=1;" vertex="1" parent="1">
          <mxGeometry x="200" y="560" width="120" height="60" as="geometry" />
        </mxCell>
        <mxCell id="piZ6OrKOnbqKaCqgqvd0-53" style="edgeStyle=orthogonalEdgeStyle;rounded=0;orthogonalLoop=1;jettySize=auto;html=1;exitX=0.25;exitY=0;exitDx=0;exitDy=0;entryX=0.25;entryY=1;entryDx=0;entryDy=0;endArrow=none;startFill=0;" edge="1" parent="1" source="piZ6OrKOnbqKaCqgqvd0-14" target="piZ6OrKOnbqKaCqgqvd0-16">
          <mxGeometry relative="1" as="geometry" />
        </mxCell>
        <mxCell id="piZ6OrKOnbqKaCqgqvd0-14" value="&lt;span style=&quot;font-size: 15px;&quot;&gt;Fornecedor&lt;/span&gt;" style="rounded=0;whiteSpace=wrap;html=1;" vertex="1" parent="1">
          <mxGeometry x="50" y="560" width="120" height="60" as="geometry" />
        </mxCell>
        <mxCell id="piZ6OrKOnbqKaCqgqvd0-15" value="&lt;font style=&quot;font-size: 15px;&quot;&gt;Doação&lt;/font&gt;" style="rounded=0;whiteSpace=wrap;html=1;" vertex="1" parent="1">
          <mxGeometry x="200" y="350" width="120" height="60" as="geometry" />
        </mxCell>
        <mxCell id="piZ6OrKOnbqKaCqgqvd0-16" value="&lt;font style=&quot;font-size: 15px;&quot;&gt;Compra&lt;/font&gt;" style="rounded=0;whiteSpace=wrap;html=1;" vertex="1" parent="1">
          <mxGeometry x="50" y="350" width="120" height="60" as="geometry" />
        </mxCell>
        <mxCell id="piZ6OrKOnbqKaCqgqvd0-17" value="&lt;font style=&quot;font-size: 15px;&quot;&gt;Desenvolvimento&lt;/font&gt;" style="rounded=0;whiteSpace=wrap;html=1;" vertex="1" parent="1">
          <mxGeometry x="670" y="350" width="120" height="60" as="geometry" />
        </mxCell>
        <mxCell id="piZ6OrKOnbqKaCqgqvd0-18" value="&lt;span style=&quot;font-size: 15px;&quot;&gt;Devolução&lt;/span&gt;" style="rounded=0;whiteSpace=wrap;html=1;" vertex="1" parent="1">
          <mxGeometry x="510" y="350" width="120" height="60" as="geometry" />
        </mxCell>
        <mxCell id="piZ6OrKOnbqKaCqgqvd0-64" style="edgeStyle=orthogonalEdgeStyle;rounded=0;orthogonalLoop=1;jettySize=auto;html=1;entryX=0;entryY=1;entryDx=0;entryDy=0;" edge="1" parent="1" source="piZ6OrKOnbqKaCqgqvd0-21" target="piZ6OrKOnbqKaCqgqvd0-3">
          <mxGeometry relative="1" as="geometry">
            <Array as="points">
              <mxPoint x="-190" y="270" />
              <mxPoint x="200" y="270" />
            </Array>
          </mxGeometry>
        </mxCell>
        <mxCell id="piZ6OrKOnbqKaCqgqvd0-68" style="edgeStyle=orthogonalEdgeStyle;rounded=0;orthogonalLoop=1;jettySize=auto;html=1;exitX=0.75;exitY=0;exitDx=0;exitDy=0;entryX=0.25;entryY=0;entryDx=0;entryDy=0;" edge="1" parent="1" source="piZ6OrKOnbqKaCqgqvd0-21" target="piZ6OrKOnbqKaCqgqvd0-4">
          <mxGeometry relative="1" as="geometry" />
        </mxCell>
        <mxCell id="piZ6OrKOnbqKaCqgqvd0-21" value="&lt;font style=&quot;font-size: 15px;&quot;&gt;Exclusão&lt;/font&gt;" style="rounded=0;whiteSpace=wrap;html=1;" vertex="1" parent="1">
          <mxGeometry x="-250" y="350" width="120" height="60" as="geometry" />
        </mxCell>
        <mxCell id="piZ6OrKOnbqKaCqgqvd0-67" style="edgeStyle=orthogonalEdgeStyle;rounded=0;orthogonalLoop=1;jettySize=auto;html=1;entryX=0.25;entryY=1;entryDx=0;entryDy=0;" edge="1" parent="1" source="piZ6OrKOnbqKaCqgqvd0-22" target="piZ6OrKOnbqKaCqgqvd0-3">
          <mxGeometry relative="1" as="geometry">
            <Array as="points">
              <mxPoint x="-40" y="310" />
              <mxPoint x="230" y="310" />
            </Array>
          </mxGeometry>
        </mxCell>
        <mxCell id="piZ6OrKOnbqKaCqgqvd0-69" style="edgeStyle=orthogonalEdgeStyle;rounded=0;orthogonalLoop=1;jettySize=auto;html=1;exitX=0.25;exitY=0;exitDx=0;exitDy=0;entryX=0.5;entryY=0;entryDx=0;entryDy=0;" edge="1" parent="1" source="piZ6OrKOnbqKaCqgqvd0-22" target="piZ6OrKOnbqKaCqgqvd0-4">
          <mxGeometry relative="1" as="geometry">
            <Array as="points">
              <mxPoint x="-70" y="120" />
              <mxPoint x="570" y="120" />
            </Array>
          </mxGeometry>
        </mxCell>
        <mxCell id="piZ6OrKOnbqKaCqgqvd0-22" value="&lt;font style=&quot;font-size: 15px;&quot;&gt;Descarte&lt;/font&gt;" style="rounded=0;whiteSpace=wrap;html=1;" vertex="1" parent="1">
          <mxGeometry x="-100" y="350" width="120" height="60" as="geometry" />
        </mxCell>
        <mxCell id="piZ6OrKOnbqKaCqgqvd0-62" style="edgeStyle=orthogonalEdgeStyle;rounded=0;orthogonalLoop=1;jettySize=auto;html=1;entryX=0.5;entryY=1;entryDx=0;entryDy=0;" edge="1" parent="1" source="piZ6OrKOnbqKaCqgqvd0-23" target="piZ6OrKOnbqKaCqgqvd0-3">
          <mxGeometry relative="1" as="geometry">
            <Array as="points">
              <mxPoint x="414" y="300" />
              <mxPoint x="260" y="300" />
            </Array>
          </mxGeometry>
        </mxCell>
        <mxCell id="piZ6OrKOnbqKaCqgqvd0-63" style="edgeStyle=orthogonalEdgeStyle;rounded=0;orthogonalLoop=1;jettySize=auto;html=1;exitX=0.75;exitY=0;exitDx=0;exitDy=0;entryX=0.25;entryY=1;entryDx=0;entryDy=0;" edge="1" parent="1" source="piZ6OrKOnbqKaCqgqvd0-23" target="piZ6OrKOnbqKaCqgqvd0-4">
          <mxGeometry relative="1" as="geometry" />
        </mxCell>
        <mxCell id="piZ6OrKOnbqKaCqgqvd0-23" value="&lt;font style=&quot;font-size: 15px;&quot;&gt;Empréstimo&lt;/font&gt;" style="rounded=0;whiteSpace=wrap;html=1;" vertex="1" parent="1">
          <mxGeometry x="354" y="350" width="120" height="60" as="geometry" />
        </mxCell>
        <mxCell id="piZ6OrKOnbqKaCqgqvd0-70" style="edgeStyle=orthogonalEdgeStyle;rounded=0;orthogonalLoop=1;jettySize=auto;html=1;entryX=0.75;entryY=1;entryDx=0;entryDy=0;" edge="1" parent="1" source="piZ6OrKOnbqKaCqgqvd0-25" target="piZ6OrKOnbqKaCqgqvd0-4">
          <mxGeometry relative="1" as="geometry">
            <Array as="points">
              <mxPoint x="887" y="300" />
              <mxPoint x="600" y="300" />
            </Array>
          </mxGeometry>
        </mxCell>
        <mxCell id="piZ6OrKOnbqKaCqgqvd0-71" style="edgeStyle=orthogonalEdgeStyle;rounded=0;orthogonalLoop=1;jettySize=auto;html=1;exitX=0.75;exitY=0;exitDx=0;exitDy=0;entryX=0.75;entryY=0;entryDx=0;entryDy=0;" edge="1" parent="1" source="piZ6OrKOnbqKaCqgqvd0-25" target="piZ6OrKOnbqKaCqgqvd0-3">
          <mxGeometry relative="1" as="geometry" />
        </mxCell>
        <mxCell id="piZ6OrKOnbqKaCqgqvd0-25" value="&lt;font style=&quot;font-size: 15px;&quot;&gt;Venda&lt;/font&gt;" style="rounded=0;whiteSpace=wrap;html=1;" vertex="1" parent="1">
          <mxGeometry x="827" y="350" width="120" height="60" as="geometry" />
        </mxCell>
        <mxCell id="piZ6OrKOnbqKaCqgqvd0-34" style="edgeStyle=orthogonalEdgeStyle;rounded=0;orthogonalLoop=1;jettySize=auto;html=1;entryX=0.5;entryY=1;entryDx=0;entryDy=0;endArrow=none;startFill=0;" edge="1" parent="1" source="piZ6OrKOnbqKaCqgqvd0-26" target="piZ6OrKOnbqKaCqgqvd0-14">
          <mxGeometry relative="1" as="geometry" />
        </mxCell>
        <mxCell id="piZ6OrKOnbqKaCqgqvd0-35" style="edgeStyle=orthogonalEdgeStyle;rounded=0;orthogonalLoop=1;jettySize=auto;html=1;entryX=0.5;entryY=1;entryDx=0;entryDy=0;endArrow=none;startFill=0;" edge="1" parent="1" source="piZ6OrKOnbqKaCqgqvd0-26" target="piZ6OrKOnbqKaCqgqvd0-13">
          <mxGeometry relative="1" as="geometry" />
        </mxCell>
        <mxCell id="piZ6OrKOnbqKaCqgqvd0-36" style="edgeStyle=orthogonalEdgeStyle;rounded=0;orthogonalLoop=1;jettySize=auto;html=1;entryX=0.5;entryY=1;entryDx=0;entryDy=0;exitX=1;exitY=0;exitDx=0;exitDy=0;endArrow=none;startFill=0;" edge="1" parent="1" source="piZ6OrKOnbqKaCqgqvd0-26" target="piZ6OrKOnbqKaCqgqvd0-12">
          <mxGeometry relative="1" as="geometry">
            <Array as="points">
              <mxPoint x="414" y="725" />
            </Array>
          </mxGeometry>
        </mxCell>
        <mxCell id="piZ6OrKOnbqKaCqgqvd0-38" style="edgeStyle=orthogonalEdgeStyle;rounded=0;orthogonalLoop=1;jettySize=auto;html=1;entryX=0.5;entryY=1;entryDx=0;entryDy=0;endArrow=none;startFill=0;" edge="1" parent="1" source="piZ6OrKOnbqKaCqgqvd0-26" target="piZ6OrKOnbqKaCqgqvd0-11">
          <mxGeometry relative="1" as="geometry" />
        </mxCell>
        <mxCell id="piZ6OrKOnbqKaCqgqvd0-26" value="&lt;span style=&quot;font-size: 15px;&quot;&gt;Telefone&lt;/span&gt;" style="rounded=0;whiteSpace=wrap;html=1;" vertex="1" parent="1">
          <mxGeometry x="200" y="725" width="120" height="60" as="geometry" />
        </mxCell>
        <mxCell id="piZ6OrKOnbqKaCqgqvd0-43" style="edgeStyle=orthogonalEdgeStyle;rounded=0;orthogonalLoop=1;jettySize=auto;html=1;exitX=0.25;exitY=1;exitDx=0;exitDy=0;entryX=0.558;entryY=0.078;entryDx=0;entryDy=0;entryPerimeter=0;endArrow=none;startFill=0;" edge="1" parent="1" source="piZ6OrKOnbqKaCqgqvd0-5" target="piZ6OrKOnbqKaCqgqvd0-15">
          <mxGeometry relative="1" as="geometry" />
        </mxCell>
      </root>
    </mxGraphModel>
  </diagram>
</mxfile>
